<!-- <svg  xmlns="http://www.w3.org/2000/svg" viewBox="0 0 1026 1026" fill="none" aria-hidden="true" class="absolute inset-0 h-full w-full animate-spin-slow"><path d="M1025 513c0 282.77-229.23 512-512 512S1 795.77 1 513 230.23 1 513 1s512 229.23 512 512Z" stroke="#D4D4D4" stroke-opacity="0.7"></path><path d="M513 1025C230.23 1025 1 795.77 1 513" stroke="url(#:S2:-gradient-1)" stroke-linecap="round"></path><defs><linearGradient id=":S2:-gradient-1" x1="1" y1="513" x2="1" y2="1025" gradientUnits="userSpaceOnUse"><stop stop-color="#06b6d4"></stop><stop offset="1" stop-color="#06b6d4" stop-opacity="0"></stop></linearGradient></defs></svg> -->

<svg xmlns="http://www.w3.org/2000/svg" viewBox="0 0 1026 1026" fill="none" aria-hidden="true" class="absolute inset-0 h-full w-full animate-spin-slow">
  <path d="M1025 513c0 282.77-229.23 512-512 512S1 795.77 1 513 230.23 1 513 1s512 229.23 512 512Z" stroke="#1A237E" stroke-opacity="0.6" stroke-width="3"></path>
  <path d="M513 1025C230.23 1025 1 795.77 1 513" stroke="#1A237E" stroke-linecap="round" stroke-width="3"></path>
  <defs>
    <linearGradient id=":S2:-gradient-1" x1="1" y1="513" x2="1" y2="1025" gradientUnits="userSpaceOnUse">
      <stop stop-color="#06b6d4"></stop>
      <stop offset="1" stop-color="#06b6d4" stop-opacity="0"></stop>
    </linearGradient>
  </defs>
</svg>


